<svg width="100" height="100" viewBox="0 0 100 100" fill="none" xmlns="http://www.w3.org/2000/svg">
<g clip-path="url(#clip0_4105_4)">
<path fill-rule="evenodd" clip-rule="evenodd" d="M82.4264 46.1422C88.0871 52.415 92.3072 57.8574 95.0865 62.7371C105.265 80.6084 90.7854 98.7598 71.3941 98.433C52.0029 98.7598 37.5236 80.6084 47.7018 62.7371C50.4811 57.8574 54.7014 52.415 60.3619 46.1422C61.0375 46.3562 61.7562 46.4721 62.5012 46.4721H80.2869C81.032 46.4721 81.7508 46.3562 82.4264 46.1422ZM10.4426 1.56268C5.5584 1.56268 1.5625 5.55878 1.5625 10.4428V75.3603C1.5625 80.2445 5.5584 84.2404 10.4426 84.2404H43.1434C39.9473 76.6035 40.9143 68.3408 44.9865 61.1906C45.8184 59.7301 46.7309 58.2826 47.7037 56.8525C47.141 56.4885 46.7672 55.8553 46.7672 55.1375V52.4836C46.7672 51.3592 47.6842 50.4422 48.8086 50.4422H52.5111C54.166 48.408 55.8879 46.4279 57.6111 44.5166C57.1023 44.034 56.6648 43.4769 56.3158 42.8635H48.8086C47.6842 42.8635 46.7672 41.9465 46.7672 40.8221V38.168C46.7672 37.0435 47.6842 36.1265 48.8086 36.1265H56.1699C56.8043 34.8912 57.79 33.8639 58.9936 33.1775L56.8721 31.0562C55.5809 29.765 54.8828 28.1 54.777 26.4043H13.4025C12.2781 26.4043 11.3611 25.4873 11.3611 24.3629V16.3502C11.3611 15.2258 12.2781 14.3088 13.4025 14.3088H58.3141C59.4385 14.3088 60.3555 15.2258 60.3555 16.3502V18.9191C61.7961 18.5887 63.3283 18.6986 64.7287 19.273C65.6756 17.0066 67.7295 15.3598 70.1543 14.9353V10.4428C70.1543 5.55878 66.1582 1.56268 61.2742 1.56268H10.4426ZM62.5014 43.3471C60.3084 43.3471 58.5146 41.5531 58.5146 39.3603C58.5146 37.1678 60.3086 35.3738 62.5014 35.3738H80.2871C82.4799 35.3738 84.2738 37.1678 84.2738 39.3605C84.2738 41.5529 82.4799 43.3471 80.2871 43.3471H62.5014ZM15.2781 36.1265H22.908C24.0324 36.1265 24.9494 37.0435 24.9494 38.168V40.8219C24.9494 41.9463 24.0324 42.8633 22.908 42.8633H15.2781C14.1537 42.8633 13.2367 41.9463 13.2367 40.8219V38.168C13.2367 37.0435 14.1537 36.1265 15.2781 36.1265ZM32.0434 64.7576C30.9189 64.7576 30.0019 65.6746 30.0019 66.799V69.4529C30.0019 70.5773 30.9189 71.4943 32.0434 71.4943H39.6732C40.7977 71.4943 41.7146 70.5773 41.7146 69.4529V66.799C41.7146 65.6746 40.7977 64.7576 39.6732 64.7576H32.0434ZM15.2781 64.7576H22.908C24.0324 64.7576 24.9494 65.6746 24.9494 66.799V69.4529C24.9494 70.5773 24.0324 71.4943 22.908 71.4943H15.2781C14.1537 71.4943 13.2367 70.5773 13.2367 69.4529V66.799C13.2367 65.6746 14.1537 64.7576 15.2781 64.7576ZM32.0434 50.442C30.9189 50.442 30.0019 51.359 30.0019 52.4834V55.1373C30.0019 56.2617 30.9189 57.1787 32.0434 57.1787H39.6732C40.7977 57.1787 41.7146 56.2617 41.7146 55.1373V52.4834C41.7146 51.359 40.7977 50.442 39.6732 50.442H32.0434ZM15.2781 50.442H22.908C24.0324 50.442 24.9494 51.359 24.9494 52.4834V55.1373C24.9494 56.2617 24.0324 57.1787 22.908 57.1787H15.2781C14.1537 57.1787 13.2367 56.2617 13.2367 55.1373V52.4834C13.2367 51.3592 14.1537 50.442 15.2781 50.442ZM32.0434 36.1265H39.6732C40.7977 36.1265 41.7146 37.0435 41.7146 38.168V40.8219C41.7146 41.9463 40.7977 42.8633 39.6732 42.8633H32.0434C30.9189 42.8633 30.0019 41.9463 30.0019 40.8219V38.168C30.0019 37.0435 30.9189 36.1265 32.0434 36.1265ZM62.4844 32.249L59.0818 28.8465C57.4885 27.2531 57.4885 24.6459 59.0818 23.0527C60.4369 21.6974 62.5822 21.4685 64.1947 22.5035C64.7937 22.8879 65.4816 22.9492 66.1389 22.6771C66.7961 22.4049 67.2391 21.8754 67.3908 21.1799C67.7924 19.3408 69.4389 17.9527 71.3941 17.9523C73.3139 17.9523 74.9885 19.3057 75.3977 21.1799C75.5494 21.8754 75.9924 22.4049 76.6496 22.6771C77.3072 22.9496 77.9949 22.8879 78.5936 22.5035C80.1777 21.4867 82.324 21.6701 83.7064 23.0523C85.2998 24.6457 85.2998 27.2533 83.7064 28.8465L80.3039 32.249L80.2869 32.2488H62.5012L62.4844 32.249Z" fill="#B72837"/>
<path d="M73.0629 80.98C72.9158 80.9791 72.7705 80.9479 72.6358 80.8882C72.5012 80.8286 72.3802 80.7418 72.2803 80.6332L66.3111 74.1771C66.1118 73.9748 66 73.7016 66 73.4168C66 73.1321 66.1118 72.8588 66.3111 72.6565C66.5052 72.4741 66.7617 72.3738 67.0274 72.3764H69.9855C70.4838 72.3676 70.9697 72.2177 71.3873 71.9441C71.8049 71.6704 72.1374 71.284 72.3466 70.8291H68.0886C67.8259 70.7996 67.5832 70.6738 67.407 70.4757C67.2307 70.2776 67.1333 70.0211 67.1333 69.7553C67.1333 69.4895 67.2307 69.233 67.407 69.0349C67.5832 68.8368 67.8259 68.711 68.0886 68.6815H72.413C72.2018 68.2291 71.8685 67.8454 71.451 67.5742C71.0336 67.303 70.5487 67.1552 70.0518 67.1476H67.0937C66.831 67.1181 66.5883 66.9922 66.4121 66.7941C66.2359 66.596 66.1384 66.3396 66.1384 66.0738C66.1384 65.808 66.2359 65.5515 66.4121 65.3534C66.5883 65.1553 66.831 65.0295 67.0937 65H76.3792C76.6419 65.0295 76.8846 65.1553 77.0608 65.3534C77.237 65.5515 77.3345 65.808 77.3345 66.0738C77.3345 66.3396 77.237 66.596 77.0608 66.7941C76.8846 66.9922 76.6419 67.1181 76.3792 67.1476H74.0048C74.3125 67.6148 74.5328 68.1347 74.6547 68.6815H76.4057C76.6684 68.711 76.9111 68.8368 77.0873 69.0349C77.2635 69.233 77.361 69.4895 77.361 69.7553C77.361 70.0211 77.2635 70.2776 77.0873 70.4757C76.9111 70.6738 76.6684 70.7996 76.4057 70.8291H74.668C74.4257 71.8782 73.8378 72.8141 72.9998 73.4849C72.1618 74.1556 71.1229 74.5218 70.0518 74.5239H69.5477L73.9119 79.2459C74.1104 79.446 74.2218 79.717 74.2218 79.9996C74.2218 80.2821 74.1104 80.5532 73.9119 80.7532C73.7938 80.8483 73.6574 80.9175 73.5112 80.9566C73.365 80.9956 73.2124 81.0036 73.0629 80.98Z" fill="white"/>
</g>
<defs>
<clipPath id="clip0_4105_4">
<rect width="100" height="100" fill="white"/>
</clipPath>
</defs>
</svg>
