<svg width="100" height="100" viewBox="0 0 100 100" fill="none" xmlns="http://www.w3.org/2000/svg">
<path d="M62.6816 82.2574C61.2363 81.0392 60.3076 79.2016 60.3076 77.1575V72.1816C60.3076 68.5889 63.1567 65.6569 66.7285 65.5538C63.6314 62.1883 61.7319 57.6872 61.7319 52.7525C61.7319 46.7234 64.561 41.3553 68.938 37.8659V11.1484C68.938 7.26666 65.7788 4.1076 61.8975 4.1076H9.04004C5.1587 4.1076 2 7.26666 2 11.1484V87.6877C2 91.5899 5.1587 94.7283 9.04004 94.7283H60.7617C60.4727 93.985 60.3076 93.1797 60.3076 92.3333V87.3572C60.3076 85.3132 61.2363 83.4755 62.6816 82.2574ZM22.4199 85.0861C22.4199 86.1804 21.5322 87.0682 20.4375 87.0682H14.5327C13.459 87.0682 12.5708 86.1804 12.5708 85.0861V79.2016C12.5708 78.1074 13.459 77.2196 14.5327 77.2196H20.4375C21.5322 77.2196 22.4199 78.1074 22.4199 79.2016V85.0861ZM22.4199 68.4031C22.4199 69.4975 21.5322 70.3853 20.4375 70.3853H14.5327C13.459 70.3853 12.5708 69.4975 12.5708 68.4031V62.498C12.5708 61.4242 13.459 60.5364 14.5327 60.5364H20.4375C21.5322 60.5364 22.4199 61.4243 22.4199 62.498V68.4031ZM22.4199 51.6994C22.4199 52.7938 21.5322 53.6816 20.4375 53.6816H14.5327C13.459 53.6816 12.5708 52.7938 12.5708 51.6994V45.815C12.5708 44.7208 13.459 43.8328 14.5327 43.8328H20.4375C21.5322 43.8328 22.4199 44.7208 22.4199 45.815V51.6994ZM40.3833 85.0861C40.3833 86.1804 39.4951 87.0682 38.4214 87.0682H32.5166C31.4219 87.0682 30.5342 86.1804 30.5342 85.0861V79.2016C30.5342 78.1074 31.4219 77.2196 32.5166 77.2196H38.4214C39.4951 77.2196 40.3833 78.1074 40.3833 79.2016V85.0861ZM40.3833 68.4031C40.3833 69.4975 39.4951 70.3853 38.4214 70.3853H32.5166C31.4219 70.3853 30.5342 69.4975 30.5342 68.4031V62.498C30.5342 61.4242 31.4219 60.5364 32.5166 60.5364H38.4214C39.4951 60.5364 40.3833 61.4243 40.3833 62.498V68.4031ZM40.3833 51.6994C40.3833 52.7938 39.4951 53.6816 38.4214 53.6816H32.5166C31.4219 53.6816 30.5342 52.7938 30.5342 51.6994V45.815C30.5342 44.7208 31.4219 43.8328 32.5166 43.8328H38.4214C39.4951 43.8328 40.3833 44.7208 40.3833 45.815V51.6994ZM58.3667 85.0861C58.3667 86.1804 57.4785 87.0682 56.3848 87.0682H50.5C49.4058 87.0682 48.5181 86.1804 48.5181 85.0861V79.2016C48.5181 78.1074 49.4058 77.2196 50.5 77.2196H56.3848C57.4785 77.2196 58.3667 78.1074 58.3667 79.2016V85.0861ZM58.3667 68.4031C58.3667 69.4975 57.4785 70.3853 56.3848 70.3853H50.5C49.4058 70.3853 48.5181 69.4975 48.5181 68.4031V62.498C48.5181 61.4242 49.4058 60.5364 50.5 60.5364H56.3848C57.4785 60.5364 58.3667 61.4243 58.3667 62.498V68.4031ZM58.3667 51.6994C58.3667 52.7938 57.4785 53.6816 56.3848 53.6816H50.5C49.4058 53.6816 48.5181 52.7938 48.5181 51.6994V45.815C48.5181 44.7208 49.4058 43.8328 50.5 43.8328H56.3848C57.4785 43.8328 58.3667 44.7208 58.3667 45.815V51.6994ZM58.3667 33.0757H12.5708V14.6789H58.3667V33.0757Z" fill="#B72837"/>
<path d="M96.5708 52.7484C96.5708 43.9715 89.4746 36.8752 80.6978 36.8752C71.9395 36.8752 64.8252 43.9715 64.8252 52.7484C64.8252 61.5066 71.9395 68.6213 80.6978 68.6213C89.4746 68.6213 96.5708 61.5066 96.5708 52.7484Z" fill="#B72837"/>
<path d="M82.5952 59.6591C82.4786 59.6584 82.3635 59.6337 82.2568 59.5864C82.1502 59.5392 82.0543 59.4704 81.9752 59.3843L77.2464 54.27C77.0886 54.1097 77 53.8933 77 53.6677C77 53.4421 77.0886 53.2256 77.2464 53.0654C77.4002 52.9209 77.6034 52.8414 77.8139 52.8435H80.1572C80.552 52.8365 80.9369 52.7178 81.2677 52.501C81.5985 52.2842 81.8619 51.9781 82.0277 51.6177H78.6545C78.4464 51.5944 78.2542 51.4947 78.1146 51.3377C77.975 51.1808 77.8978 50.9776 77.8978 50.7671C77.8978 50.5565 77.975 50.3533 78.1146 50.1964C78.2542 50.0395 78.4464 49.9398 78.6545 49.9164H82.0802C81.913 49.558 81.6489 49.2541 81.3182 49.0393C80.9875 48.8244 80.6034 48.7073 80.2098 48.7013H77.8664C77.6583 48.6779 77.4661 48.5782 77.3265 48.4213C77.1869 48.2644 77.1097 48.0612 77.1097 47.8506C77.1097 47.6401 77.1869 47.4369 77.3265 47.28C77.4661 47.123 77.6583 47.0234 77.8664 47H85.2222C85.4303 47.0234 85.6226 47.123 85.7622 47.28C85.9018 47.4369 85.979 47.6401 85.979 47.8506C85.979 48.0612 85.9018 48.2644 85.7622 48.4213C85.6226 48.5782 85.4303 48.6779 85.2222 48.7013H83.3412C83.585 49.0714 83.7595 49.4832 83.8562 49.9164H85.2433C85.4514 49.9398 85.6436 50.0395 85.7832 50.1964C85.9228 50.3533 86 50.5565 86 50.7671C86 50.9776 85.9228 51.1808 85.7832 51.3377C85.6436 51.4947 85.4514 51.5944 85.2433 51.6177H83.8667C83.6747 52.4488 83.209 53.1902 82.5451 53.7216C81.8812 54.2529 81.0583 54.543 80.2098 54.5447H79.8105L83.2677 58.2854C83.4249 58.4439 83.5132 58.6586 83.5132 58.8824C83.5132 59.1063 83.4249 59.321 83.2677 59.4794C83.1742 59.5548 83.0661 59.6096 82.9503 59.6406C82.8345 59.6715 82.7135 59.6778 82.5952 59.6591Z" fill="white"/>
<path d="M94.5581 83.8054H66.8374C64.937 83.8054 63.396 85.3461 63.396 87.2469V92.4509C63.396 94.3516 64.937 95.8924 66.8374 95.8924H94.5581C96.459 95.8924 98 94.3516 98 92.4509V87.2469C98 85.3461 96.459 83.8054 94.5581 83.8054Z" fill="#B72837"/>
<path d="M94.5581 68.6213H80.6977H66.8374C64.937 68.6213 63.396 70.1621 63.396 72.0627V77.2668C63.396 79.1674 64.937 80.7083 66.8374 80.7083H94.5581C96.459 80.7083 98 79.1674 98 77.2668V72.0627C98 70.162 96.459 68.6213 94.5581 68.6213Z" fill="#B72837"/>
</svg>
